HIERARCHY
ROOT SpineBase
{
  OFFSET 0.000000 0.000000 0.000000
  CHANNELS 6 Xposition Yposition Zposition Zrotation Xrotation Yrotation
  JOINT SpineMid
  {
    OFFSET 0.000000 24.293491 0.000000
    CHANNELS 3 Zrotation Xrotation Yrotation
    JOINT SpineShoulder
    {
      OFFSET 0.152607 18.062157 -0.580242
      CHANNELS 3 Zrotation Xrotation Yrotation
      JOINT Neck
      {
        OFFSET 0.081646 5.968724 -0.428352
        CHANNELS 3 Zrotation Xrotation Yrotation
        JOINT Head
        {
          OFFSET 4.258327 11.218374 -1.243789
          CHANNELS 3 Zrotation Xrotation Yrotation
          End Site
          {
            OFFSET 0 0 0
          }
        }
      }
      JOINT ShoulderLeft
      {
        OFFSET -13.753719 -2.479614 -8.778077
        CHANNELS 3 Zrotation Xrotation Yrotation
        JOINT ElbowLeft
        {
          OFFSET -10.439632 -17.332920 -5.818423
          CHANNELS 3 Zrotation Xrotation Yrotation
          JOINT WristLeft
          {
            OFFSET 4.761340 -11.621979 -17.654742
            CHANNELS 3 Zrotation Xrotation Yrotation
            JOINT HandLeft
            {
              OFFSET 0.814814 -4.766248 -5.235351
              CHANNELS 3 Zrotation Xrotation Yrotation
              JOINT HandTipLeft
              {
                OFFSET 0.586155 -6.195437 -0.686155
                CHANNELS 3 Zrotation Xrotation Yrotation
                End Site
                {
                  OFFSET 0 0 0
                }
              }
              JOINT ThumbLeft
              {
                OFFSET 1.882370 1.796378 -3.076601
                CHANNELS 3 Zrotation Xrotation Yrotation
                End Site
                {
                  OFFSET 0 0 0
                }
              }
            }
          }
        }
      }
      JOINT ShoulderRight
      {
        OFFSET 12.833806 -4.233920 2.944065
        CHANNELS 3 Zrotation Xrotation Yrotation
        JOINT ElbowRight
        {
          OFFSET -2.459868 -20.388996 0.674061
          CHANNELS 3 Zrotation Xrotation Yrotation
          JOINT WristRight
          {
            OFFSET 4.555025 -17.006118 -16.509317
            CHANNELS 3 Zrotation Xrotation Yrotation
            JOINT HandRight
            {
              OFFSET 1.019547 -2.769780 -3.113333
              CHANNELS 3 Zrotation Xrotation Yrotation
              JOINT HandTipRight
              {
                OFFSET 1.617647 -3.841675 -5.749646
                CHANNELS 3 Zrotation Xrotation Yrotation
                End Site
                {
                  OFFSET 0 0 0
                }
              }
              JOINT ThumbRight
              {
                OFFSET -2.864597 -0.541605 -3.349045
                CHANNELS 3 Zrotation Xrotation Yrotation
                End Site
                {
                  OFFSET 0 0 0
                }
              }
            }
          }
        }
      }
    }
  }
  JOINT HipLeft
  {
    OFFSET -5.940665 0.370329 -5.704565
    CHANNELS 3 Zrotation Xrotation Yrotation
    JOINT KneeLeft
    {
      OFFSET 10.562227 -6.944896 -27.862591
      CHANNELS 3 Zrotation Xrotation Yrotation
      JOINT AnkleLeft
      {
        OFFSET -2.117963 -37.399272 -2.095106
        CHANNELS 3 Zrotation Xrotation Yrotation
        JOINT FootLeft
        {
          OFFSET 2.992854 -5.268281 -11.793170
          CHANNELS 3 Zrotation Xrotation Yrotation
          End Site
          {
            OFFSET 0 0 0
          }
        }
      }
    }
  }
  JOINT HipRight
  {
    OFFSET 5.849311 0.240881 -1.179471
    CHANNELS 3 Zrotation Xrotation Yrotation
    JOINT KneeRight
    {
      OFFSET 20.871864 0.127623 -21.491132
      CHANNELS 3 Zrotation Xrotation Yrotation
      JOINT AnkleRight
      {
        OFFSET 0.712727 -36.977586 -7.083882
        CHANNELS 3 Zrotation Xrotation Yrotation
        JOINT FootRight
        {
          OFFSET -8.643673 -6.772556 -4.894837
          CHANNELS 3 Zrotation Xrotation Yrotation
          End Site
          {
            OFFSET 0 0 0
          }
        }
      }
    }
  }
}
MOTION
Frames: 10
Frame Time: 0.033333
5.166565 50.732058 398.037443 -0.000000 0.000000 -20.997229 0.000000 0.000000 20.997229 -0.000000 0.000000 0.000000 -0.000000 0.000000 0.000000 0.000000 0.000000 0.000000 -0.000000 0.000000 0.000000 -0.000000 0.000000 0.000000 -0.000000 0.000000 0.000000 -0.000000 0.000000 0.000000 0.000000 0.000000 0.000000 0.000000 0.000000 0.000000 -0.000000 0.000000 0.000000 -0.000000 0.000000 0.000000 -0.000000 0.000000 0.000000 -0.000000 0.000000 0.000000 0.000000 0.000000 0.000000 0.000000 0.000000 0.000000 0.000000 0.000000 20.997229 -0.000000 0.000000 0.000000 -0.000000 0.000000 0.000000 0.000000 0.000000 0.000000 0.000000 0.000000 20.997229 -0.000000 0.000000 0.000000 -0.000000 0.000000 0.000000 0.000000 0.000000 0.000000
5.092057 50.748161 397.818811 -0.139221 0.382821 -21.082872 0.267612 -0.307113 21.084054 -0.000000 0.000000 0.000000 -0.000000 0.000000 0.000000 0.000000 0.000000 0.000000 -0.000000 0.000000 0.000000 -0.000000 0.000000 0.000000 -0.000000 0.000000 0.000000 0.879546 0.007493 -0.096691 0.000000 0.000000 0.000000 0.000000 0.000000 0.000000 -0.000000 0.000000 0.000000 -0.000000 0.000000 0.000000 0.150201 2.301405 0.660173 -0.176843 -2.299512 -0.666740 0.000000 0.000000 0.000000 0.000000 0.000000 0.000000 0.526769 -0.562253 19.969645 -0.156439 0.328301 1.116823 -0.935474 -3.016811 0.379402 0.000000 0.000000 0.000000 0.267612 -0.307113 21.084054 -0.000000 0.000000 0.000000 1.286362 -1.126714 0.532351 0.000000 0.000000 0.000000
5.071217 50.771594 397.592346 -0.194925 0.754659 -21.147988 0.454084 -0.633498 21.151782 -0.000000 0.000000 0.000000 -0.000000 0.000000 0.000000 0.000000 0.000000 0.000000 -0.000000 0.000000 0.000000 -0.000000 0.000000 0.000000 -0.000000 0.000000 0.000000 1.583415 0.167674 -0.161593 0.000000 0.000000 0.000000 0.000000 0.000000 0.000000 -0.000000 0.000000 0.000000 -0.000000 0.000000 0.000000 0.308287 4.310794 1.178348 -0.137602 -2.994103 -0.986262 0.000000 0.000000 0.000000 0.000000 0.000000 0.000000 0.904237 -1.157857 19.204754 -1.297919 0.913780 2.010319 -0.754015 -6.106901 0.642286 0.000000 0.000000 0.000000 0.454084 -0.633498 21.151782 -0.000000 0.000000 0.000000 2.292682 -2.079932 1.081002 0.000000 0.000000 0.000000
5.104043 50.802358 397.358048 -0.166843 1.115400 -21.192162 0.558837 -0.979634 21.198563 -0.000000 0.000000 0.000000 -0.000000 0.000000 0.000000 0.000000 0.000000 0.000000 -0.000000 0.000000 0.000000 -0.000000 0.000000 0.000000 -0.000000 0.000000 0.000000 2.110286 0.486335 -0.196254 0.000000 0.000000 0.000000 0.000000 0.000000 0.000000 -0.000000 0.000000 0.000000 -0.000000 0.000000 0.000000 0.487045 6.005509 1.545954 -0.578256 -4.234849 -0.911905 0.000000 0.000000 0.000000 0.000000 0.000000 0.000000 1.133937 -1.785236 18.696565 -1.668479 1.310882 2.597838 -1.137561 -8.569573 0.858343 0.000000 0.000000 0.000000 0.225569 -1.756155 20.868053 0.587993 0.606847 0.319440 3.005971 -2.856069 1.631735 0.000000 0.000000 0.000000
5.190537 50.840451 397.115919 -0.054729 1.464936 -21.214846 0.389876 -0.550368 21.215874 -0.109519 -0.810785 0.002557 -0.000000 0.000000 0.000000 0.000000 0.000000 0.000000 -0.000000 0.000000 0.000000 -0.000000 0.000000 0.000000 -0.000000 0.000000 0.000000 2.456945 0.970711 -0.200532 0.000000 0.000000 0.000000 0.000000 0.000000 0.000000 -0.000000 0.000000 0.000000 -0.000000 0.000000 0.000000 0.697690 7.366800 1.755194 -1.292639 -5.312571 -0.448068 0.000000 0.000000 0.000000 0.000000 0.000000 0.000000 1.217290 -2.443666 18.439379 -1.847134 1.683401 2.905763 -1.454086 -10.374112 1.004848 0.000000 0.000000 0.000000 0.136413 -2.377065 20.684838 0.780354 0.807589 0.517584 3.415821 -3.454052 2.172994 0.000000 0.000000 0.000000
5.330699 50.885875 396.865956 0.141639 1.803149 -21.215365 0.391714 -0.646436 21.218150 -0.272874 -1.058771 -0.002341 -0.000000 0.000000 0.000000 0.000000 0.000000 0.000000 -0.000000 0.000000 0.000000 -0.000000 0.000000 0.000000 -0.000000 0.000000 0.000000 2.617947 1.629685 -0.172392 0.000000 0.000000 0.000000 0.000000 0.000000 0.000000 -0.000000 0.000000 0.000000 -0.000000 0.000000 0.000000 0.949306 8.378202 1.799118 -2.286765 -6.240197 0.407335 0.000000 0.000000 0.000000 0.000000 0.000000 0.000000 1.155462 -3.133107 18.428173 -1.830042 2.037194 2.932457 -1.661134 -11.369123 1.088448 0.000000 0.000000 0.000000 -0.037185 -3.015639 20.427645 0.970537 1.007972 0.761718 3.514055 -3.874446 2.696088 0.000000 0.000000 0.000000
5.596911 50.953831 396.491075 0.537482 2.303086 -21.173312 0.322890 -0.796427 21.174551 -0.551034 -1.443750 -0.012441 -0.000000 0.000000 0.000000 0.000000 0.000000 0.000000 -0.000000 0.000000 0.000000 -0.000000 0.000000 0.000000 -0.000000 0.000000 0.000000 2.129713 2.376659 -0.054966 0.000000 0.000000 0.000000 0.000000 0.000000 0.000000 -0.000000 0.000000 0.000000 -0.000000 0.000000 0.000000 1.004358 8.589369 1.804921 -5.333573 -7.129911 4.065933 0.000000 0.000000 0.000000 0.000000 0.000000 0.000000 0.900946 -4.187985 18.640323 -1.542024 2.608813 2.668521 -1.957204 -12.189671 1.185073 0.000000 0.000000 0.000000 -0.366370 -3.910350 19.705148 1.184775 1.241583 1.413265 1.355761 -2.634013 2.492248 0.000000 0.000000 0.000000
5.893426 51.026289 396.138734 0.982219 2.750965 -21.179678 0.232602 -0.913624 21.175834 -0.869350 -1.814827 -0.026348 -0.000000 0.000000 0.000000 0.000000 0.000000 0.000000 -0.000000 0.000000 0.000000 -0.000000 0.000000 0.000000 -0.000000 0.000000 0.000000 1.954882 2.756475 -0.002711 0.000000 0.000000 0.000000 0.000000 0.000000 0.000000 -0.000000 0.000000 0.000000 -0.000000 0.000000 0.000000 2.165110 9.440142 0.791089 -6.954082 -7.748442 5.676293 0.000000 0.000000 0.000000 0.000000 0.000000 0.000000 0.532015 -5.171854 19.142141 -1.084452 3.056649 2.136038 -2.065975 -11.926682 1.223863 0.000000 0.000000 0.000000 -0.753001 -4.762414 19.188984 1.389386 1.466875 1.895647 1.605441 -3.281603 3.197557 0.000000 0.000000 0.000000
6.130693 51.097678 395.832469 1.329036 3.120526 -21.144518 0.196562 -0.984969 21.135964 -0.379078 -1.376816 0.028674 -0.778477 -0.753495 -0.050652 0.000000 0.000000 0.000000 -0.778477 -0.753495 -0.050652 -0.000000 0.000000 0.000000 -0.000000 0.000000 0.000000 2.192694 3.807176 0.044330 0.000000 0.000000 0.000000 0.000000 0.000000 0.000000 -0.778477 -0.753495 -0.050652 -0.000000 0.000000 0.000000 2.892427 8.769706 -0.218446 -7.114514 -8.082520 5.729156 0.000000 0.000000 0.000000 0.000000 0.000000 0.000000 0.190394 -5.962813 19.760892 -0.493468 3.338363 1.422727 -1.980329 -10.618170 1.147562 0.000000 0.000000 0.000000 -1.077407 -5.490684 18.628647 1.582131 1.683195 2.378496 -0.480461 -2.358961 3.379715 0.000000 0.000000 0.000000
6.362891 51.139812 395.750535 1.703618 3.116290 -21.003514 0.048847 -0.903459 20.989524 -0.338068 -1.373196 0.045648 -1.088160 -0.880838 -0.074360 0.000000 0.000000 0.000000 -1.088160 -0.880838 -0.074360 -0.000000 0.000000 0.000000 -0.000000 0.000000 0.000000 1.046700 6.617209 0.447066 0.000000 0.000000 0.000000 0.000000 0.000000 0.000000 -1.088160 -0.880838 -0.074360 -0.000000 0.000000 0.000000 3.097393 8.268677 -0.602459 -7.150942 -7.430680 6.068582 0.000000 0.000000 0.000000 0.000000 0.000000 0.000000 -0.382638 -6.162192 20.551942 0.150063 3.260764 0.410287 -1.684448 -8.329676 0.971571 0.000000 0.000000 0.000000 -1.483280 -5.699147 18.386413 1.642919 1.750181 2.450036 -0.419932 -3.203716 4.448569 0.000000 0.000000 0.000000
